<?xml version="1.0"?>
<svg xmlns="http://www.w3.org/2000/svg" xmlns:xlink="http://www.w3.org/1999/xlink" xmlns:svgjs="http://svgjs.com/svgjs" version="1.1" width="512" height="512" x="0" y="0" viewBox="0 0 512 512" style="enable-background:new 0 0 512 512" xml:space="preserve" class=""><g transform="matrix(1.3746657041447985,0,0,1.3746657041447985,-25.914420261068415,-95.91442026106841)"><path xmlns="http://www.w3.org/2000/svg" d="m384 80h-96-32v32 80h32v-80h96v80h32v-80-32z" fill="#c0c0c0" data-original="#a36eb8" style="" class=""/><path xmlns="http://www.w3.org/2000/svg" d="m488 312a151.724 151.724 0 0 1 -58.69 120h-186.62a152 152 0 1 1 245.31-120z" fill="#66a182" data-original="#c082d9" style="" class=""/><path xmlns="http://www.w3.org/2000/svg" d="m120 320h192v48h-192z" fill="#c0c0c0" data-original="#ff6aa0" style="" class=""/><path xmlns="http://www.w3.org/2000/svg" d="m88 256h32v176h-32z" fill="#d65a31" data-original="#fda2c6" style="" class=""/><path xmlns="http://www.w3.org/2000/svg" d="m56 288h32v112h-32z" fill="#66a182" data-original="#fd84b3" style="" class=""/><path xmlns="http://www.w3.org/2000/svg" d="m24 320h32v48h-32z" fill="#c0c0c0" data-original="#ff6aa0" style="" class=""/><path xmlns="http://www.w3.org/2000/svg" d="m312 256h32v176h-32z" fill="#d65a31" transform="matrix(-1 0 0 -1 656 688)" data-original="#fda2c6" style="" class=""/><path xmlns="http://www.w3.org/2000/svg" d="m344 288h32v112h-32z" fill="#66a182" transform="matrix(-1 0 0 -1 720 688)" data-original="#fd84b3" style="" class=""/><path xmlns="http://www.w3.org/2000/svg" d="m376 320h32v48h-32z" fill="#c0c0c0" transform="matrix(-1 0 0 -1 784 688)" data-original="#ff6aa0" style="" class=""/><path xmlns="http://www.w3.org/2000/svg" d="m424 178.443v-98.443a8 8 0 0 0 -8-8h-160a8 8 0 0 0 -8 8v98.443a159.981 159.981 0 0 0 -72 133.557h-48v-56a8 8 0 0 0 -8-8h-32a8 8 0 0 0 -8 8v24h-24a8 8 0 0 0 -8 8v24h-24a8 8 0 0 0 -8 8v48a8 8 0 0 0 8 8h24v24a8 8 0 0 0 8 8h24v24a8 8 0 0 0 8 8h32a8 8 0 0 0 8-8v-56h61.315a160.458 160.458 0 0 0 48.46 62.312 8 8 0 0 0 4.915 1.688h186.62a8 8 0 0 0 4.915-1.688 159.944 159.944 0 0 0 -10.225-259.869zm-392 181.557v-32h16v32zm32 32v-96h16v96zm48 32h-16v-160h16zm152-336h144v81.143a159.215 159.215 0 0 0 -16-7.021v-50.122a8 8 0 0 0 -8-8h-96a8 8 0 0 0 -8 8v50.122a159.215 159.215 0 0 0 -16 7.021zm112 69.062a160.571 160.571 0 0 0 -80 0v-37.062h80zm-248 170.938h176v32h-176zm224-32h16v96h-16zm-16 128h-16v-160h16zm-129.017-48h97.017v48h-58.521a144.522 144.522 0 0 1 -38.496-48zm219.539 48h-74.522v-16h24a8 8 0 0 0 8-8v-24h24a8 8 0 0 0 8-8v-48a8 8 0 0 0 -8-8h-24v-24a8 8 0 0 0 -8-8h-24v-24a8 8 0 0 0 -8-8h-32a8 8 0 0 0 -8 8v56h-112c0-79.4 64.6-144 144-144s144 64.6 144 144a143.142 143.142 0 0 1 -53.478 112zm-42.522-96h16v32h-16z" fill="#222831" data-original="#000000" style="" class=""/></g></svg>
